<svg width="151" height="107" viewBox="0 0 151 107" fill="none" xmlns="http://www.w3.org/2000/svg">
<path d="M138.181 100.716C136.455 99.6209 134.813 98.4001 133.267 97.0636C130.664 94.8067 130.387 92.7211 130.612 91.369C130.745 90.6008 131.069 89.8783 131.554 89.2679C132.039 88.6575 132.669 88.1787 133.388 87.8755C135.267 87.1139 136.465 86.4134 136.946 85.7916C137.203 85.4597 137.238 85.175 137.231 84.3714C137.218 83.1679 135.168 81.2272 129.449 79.3791C126.583 78.4803 123.659 77.7799 120.697 77.283L121.234 73.8296C124.367 74.3476 127.461 75.0848 130.491 76.0358C137.348 78.242 140.696 80.9547 140.731 84.3295C140.759 87.196 139.835 89.0301 134.705 91.107C134.541 91.1845 134.398 91.2993 134.287 91.4422C134.176 91.5851 134.1 91.7521 134.065 91.9298C133.955 92.5866 134.502 93.4914 135.564 94.412C139.625 97.937 144.876 100.828 150.347 102.552L149.299 105.885C145.385 104.651 141.647 102.913 138.181 100.716V100.716Z" fill="white"/>
<path d="M149.63 106.556L149.132 106.407C145.178 105.152 141.402 103.391 137.9 101.167C136.153 100.057 134.49 98.8213 132.924 97.4688C130.139 95.0513 129.849 92.7752 130.096 91.2922C130.245 90.437 130.607 89.633 131.147 88.954C131.688 88.2749 132.391 87.7425 133.191 87.4056C135.425 86.5008 136.241 85.8632 136.531 85.4841C136.671 85.3095 136.705 85.1802 136.705 84.3907C136.705 83.6011 135.133 81.7705 129.285 79.8909C126.447 79.0019 123.55 78.3103 120.616 77.821L120.092 77.7389L120.791 73.2532L121.315 73.3335C124.473 73.8548 127.591 74.5979 130.646 75.5572C137.745 77.842 141.214 80.7154 141.251 84.3452C141.28 87.3794 140.276 89.4354 134.896 91.6136C134.816 91.6578 134.747 91.7182 134.692 91.7911C134.637 91.8639 134.598 91.9475 134.578 92.0363C134.52 92.3857 134.833 93.1089 135.902 94.0364C139.92 97.516 145.095 100.37 150.5 102.072L150.999 102.231L149.63 106.556ZM138.463 100.267C141.738 102.348 145.259 104.015 148.943 105.232L149.679 102.9C144.321 101.137 139.198 98.2776 135.208 94.8155C133.986 93.7552 133.395 92.7036 133.537 91.8459C133.586 91.5797 133.698 91.3292 133.865 91.1162C134.032 90.9032 134.249 90.734 134.496 90.6232C139.376 88.6476 140.222 87.0231 140.196 84.3348C140.164 81.215 136.933 78.6629 130.319 76.5336C127.484 75.6446 124.593 74.9444 121.666 74.4375L121.29 76.855C124.102 77.3481 126.88 78.0232 129.605 78.8761C134.763 80.5407 137.731 82.5443 137.75 84.3627C137.75 85.2116 137.724 85.6326 137.355 86.1095C136.81 86.8082 135.575 87.5523 133.579 88.3593C132.944 88.6277 132.387 89.051 131.958 89.5906C131.529 90.1301 131.243 90.7687 131.124 91.4477C130.922 92.6704 131.187 94.5604 133.605 96.6601C135.134 97.9818 136.757 99.1898 138.463 100.274V100.267Z" fill="#5254F1"/>
<path d="M113.829 56.2185L105.076 53.2036L94.7227 83.2622L103.476 86.2772C107.462 87.6499 111.829 87.3832 115.619 85.5356C119.408 83.688 122.308 80.411 123.681 76.4253V76.4253C124.361 74.4516 124.645 72.3634 124.518 70.2797C124.391 68.1961 123.855 66.1578 122.94 64.2815C122.025 62.4051 120.75 60.7273 119.186 59.3438C117.623 57.9604 115.803 56.8984 113.829 56.2185Z" fill="#54E6D4"/>
<path d="M108.637 87.6694C106.822 87.6688 105.019 87.366 103.304 86.7733L94.0547 83.5871L104.75 52.538L114.008 55.7224C117.684 56.9867 120.793 59.5142 122.78 62.8552C124.767 66.1962 125.505 70.134 124.861 73.9678C124.218 77.8016 122.235 81.2827 119.266 83.7917C116.296 86.3007 112.533 87.6747 108.646 87.6694H108.637ZM95.3875 82.9373L103.645 85.7811C107.491 87.0766 111.693 86.7984 115.335 85.0072C118.977 83.216 121.763 80.0572 123.085 76.2199C124.407 72.3826 124.157 68.1783 122.391 64.5242C120.625 60.8701 117.485 58.0627 113.657 56.7146L105.4 53.8691L95.3875 82.9373Z" fill="#5254F1"/>
<path d="M104.991 69.8102C101.772 79.1573 95.1602 85.3566 90.2221 83.6535C88.5504 83.0771 84.3232 81.9382 83.5057 79.9661C81.9091 76.1126 84.98 69.8347 87.1093 63.6528C89.1216 57.8116 89.8692 50.9904 93.2947 48.7685C95.3506 47.4339 100.027 49.172 101.878 49.8166C106.817 51.5109 108.21 60.4667 104.991 69.8102Z" fill="#5254F1"/>
<path d="M91.9375 84.4605C91.2956 84.4625 90.6579 84.3569 90.0509 84.1478C89.8518 84.0797 89.6142 84.0029 89.3522 83.9173C87.2963 83.2465 83.8324 82.1268 83.0219 80.1669C81.6559 76.8707 83.4324 72.1055 85.3137 67.066C85.7521 65.8922 86.2028 64.6799 86.615 63.4869C87.1722 61.8659 87.6369 60.1523 88.0858 58.4963C89.2649 54.1486 90.3776 50.0419 93.01 48.3335C95.1743 46.9361 99.6111 48.4715 101.744 49.2069L102.05 49.3135C104.63 50.2008 106.392 52.8821 107.012 56.8613C107.611 60.7217 107.07 65.3804 105.486 69.9797C103.903 74.579 101.468 78.5843 98.6084 81.2552C96.3603 83.3635 94.0528 84.4605 91.9375 84.4605ZM95.3647 48.7982C94.6572 48.7982 94.0336 48.9135 93.5812 49.2069C91.2842 50.6969 90.2221 54.622 89.0972 58.7653C88.6448 60.4387 88.1749 62.1681 87.6054 63.831C87.1897 65.038 86.732 66.2555 86.2954 67.4346C84.4892 72.2819 82.7808 76.8585 83.9896 79.7739C84.6167 81.2849 87.9059 82.3539 89.6736 82.9286C89.9444 83.0177 90.1872 83.1033 90.3916 83.1662C92.5873 83.9225 95.2511 82.9758 97.8922 80.5006C100.621 77.9433 102.967 74.0899 104.495 69.6495C106.024 65.2092 106.551 60.7287 105.976 57.0325C105.419 53.4568 103.903 51.0707 101.709 50.3144L101.398 50.2061C100.048 49.731 97.3717 48.7982 95.3647 48.7982Z" fill="#5254F1"/>
<path d="M100.332 68.2155C103.552 58.8701 102.16 49.9151 97.2224 48.2141C92.2851 46.5131 85.6726 52.7102 82.4529 62.0557C79.2331 71.4011 80.6255 80.3561 85.5627 82.057C90.5 83.758 97.1125 77.561 100.332 68.2155Z" fill="white"/>
<path d="M87.2738 82.8552C86.6325 82.8564 85.9955 82.7507 85.389 82.5426C82.8073 81.6534 81.0465 78.9721 80.4264 74.9947C79.8255 71.1326 80.367 66.4739 81.9513 61.8746C83.5357 57.2753 85.9777 53.2717 88.8284 50.6009C91.7665 47.8462 94.8059 46.8191 97.3877 47.7082C99.9694 48.5973 101.73 51.2786 102.349 55.2578C102.949 59.1182 102.408 63.7769 100.824 68.3761C99.2393 72.9754 96.7973 76.9791 93.9465 79.6516C91.6984 81.7583 89.3926 82.8552 87.2738 82.8552ZM95.5011 48.4436C93.6548 48.4436 91.5936 49.4445 89.5464 51.3625C86.8179 53.9197 84.4807 57.7749 82.9435 62.2152C81.4063 66.6556 80.8875 71.136 81.4622 74.8305C82.0195 78.4079 83.5339 80.794 85.7296 81.5504C87.9253 82.3067 90.5892 81.36 93.2303 78.8848C95.9588 76.3275 98.296 72.4741 99.8332 68.032C101.362 63.5917 101.887 59.1112 101.313 55.4167C100.757 51.8393 99.241 49.4532 97.0453 48.6969C96.5498 48.5282 96.0298 48.4432 95.5064 48.4453L95.5011 48.4436Z" fill="#5254F1"/>
<path d="M95.3986 57.4542C95.9485 55.858 95.581 54.2838 94.5777 53.9381C93.5743 53.5925 92.3152 54.6062 91.7653 56.2024C91.2153 57.7986 91.5829 59.3728 92.5862 59.7185C93.5895 60.0641 94.8487 59.0504 95.3986 57.4542Z" fill="#5254F1"/>
<path d="M89.8244 73.6385C90.3743 72.0423 90.0068 70.4682 89.0034 70.1225C88.0001 69.7768 86.741 70.7906 86.191 72.3868C85.6411 73.9829 86.0087 75.5571 87.012 75.9028C88.0153 76.2485 89.2745 75.2347 89.8244 73.6385Z" fill="#5254F1"/>
<path d="M53.5067 52.8123L69.7133 58.4614C70.3585 58.6868 70.8878 59.1591 71.1848 59.7746C71.4819 60.39 71.5225 61.0982 71.2977 61.7436V61.7436C71.0723 62.3888 70.5999 62.918 69.9845 63.2151C69.369 63.5122 68.6608 63.5528 68.0155 63.3279L51.8105 57.6718L53.5067 52.8123Z" fill="white"/>
<path d="M68.8616 63.9952C68.5153 63.9944 68.1716 63.9354 67.8449 63.8205L51.1387 58.0002L53.1807 52.145L69.8799 57.9671C70.5718 58.2084 71.1559 58.6869 71.5286 59.3178C71.9012 59.9488 72.0384 60.6913 71.9157 61.4137C71.793 62.1362 71.4185 62.7918 70.8584 63.2643C70.2984 63.7369 69.5891 63.9958 68.8563 63.9952H68.8616ZM52.4785 57.3574L68.189 62.8353C68.703 63.0146 69.2672 62.9824 69.7574 62.7457C70.2477 62.509 70.6238 62.0873 70.8031 61.5733C70.9824 61.0593 70.9501 60.4951 70.7135 60.0049C70.4768 59.5146 70.055 59.1385 69.541 58.9592L53.8305 53.4796L52.4785 57.3574Z" fill="#5254F1"/>
<path d="M59.1432 36.6476L75.3481 42.3001C75.9931 42.5252 76.5224 42.9972 76.8195 43.6123C77.1166 44.2275 77.1572 44.9355 76.9324 45.5806V45.5806C76.7074 46.2256 76.2354 46.7549 75.6203 47.052C75.0051 47.3491 74.2971 47.3897 73.652 47.1649L57.4453 41.5141L59.1432 36.6476Z" fill="white"/>
<path d="M74.4987 47.8322C74.1518 47.8314 73.8076 47.7724 73.4803 47.6575L56.7793 41.8337L58.8248 35.9803L75.5258 41.8023C76.2168 42.0446 76.7999 42.5235 77.1719 43.1543C77.5438 43.7851 77.6806 44.5272 77.558 45.2491C77.4355 45.9711 77.0615 46.6264 76.5022 47.0992C75.9429 47.5719 75.2345 47.8316 74.5022 47.8322H74.4987ZM58.1156 41.1944L73.8262 46.6671C74.2095 46.8004 74.6237 46.8171 75.0166 46.7151C75.4094 46.6131 75.7631 46.3968 76.0331 46.0938C76.303 45.7907 76.4771 45.4145 76.5332 45.0125C76.5894 44.6106 76.5251 44.201 76.3485 43.8356C76.2325 43.5918 76.0691 43.3736 75.8679 43.1936C75.6666 43.0137 75.4316 42.8756 75.1764 42.7875L59.4659 37.3096L58.1156 41.1944Z" fill="#5254F1"/>
<path d="M43.5198 25.8367L56.343 30.3067C56.941 30.5145 57.4922 30.8381 57.9651 31.259C58.438 31.6799 58.8233 32.1899 59.0991 32.7597C59.3748 33.3296 59.5356 33.9482 59.5722 34.5802C59.6089 35.2122 59.5206 35.8453 59.3125 36.4432L52.0109 57.3627C51.8031 57.9606 51.4795 58.5118 51.0586 58.9847C50.6377 59.4576 50.1278 59.843 49.5579 60.1187C48.9881 60.3945 48.3695 60.5553 47.7375 60.5919C47.1054 60.6285 46.4724 60.5403 45.8745 60.3322L33.0513 55.8604C31.2385 55.2286 29.5678 54.2458 28.1348 52.9681C26.7019 51.6904 25.5347 50.1429 24.6999 48.4141C23.8652 46.6852 23.3792 44.8088 23.2698 42.8921C23.1604 40.9753 23.4298 39.0558 24.0624 37.2432L24.9061 34.8239C25.5379 33.0114 26.5207 31.3412 27.7981 29.9086C29.0756 28.476 30.6227 27.309 32.3513 26.4745C34.0798 25.6399 35.9558 25.154 37.8721 25.0446C39.7884 24.9351 41.7075 25.2043 43.5198 25.8367V25.8367Z" fill="#54E6D4"/>
<path d="M47.4697 61.1217C46.8686 61.1199 46.2721 61.0165 45.7054 60.816L32.8805 56.3443C29.0919 55.0187 25.984 52.2444 24.2385 48.63C22.493 45.0156 22.2527 40.8564 23.5701 37.065L24.4121 34.6527C25.7381 30.864 28.5127 27.7559 32.1272 26.0101C35.7418 24.2644 39.9012 24.0236 43.6931 25.3406L56.5163 29.8124C57.8541 30.2791 58.9517 31.258 59.5679 32.5339C60.1841 33.8098 60.2682 35.2781 59.802 36.6161L52.5074 57.5356C52.1417 58.581 51.4609 59.4872 50.5586 60.1295C49.6564 60.7718 48.5772 61.1184 47.4697 61.1217V61.1217ZM38.72 25.545C35.7944 25.5459 32.9413 26.4559 30.5554 28.1492C28.1696 29.8425 26.3689 32.2354 25.4025 34.9968L24.5588 37.4091C23.3334 40.9383 23.5577 44.8095 25.1826 48.1735C26.8074 51.5375 29.7002 54.1198 33.2264 55.3538L46.0495 59.8239C46.582 60.0099 47.146 60.0892 47.7092 60.0572C48.2723 60.0251 48.8237 59.8823 49.3316 59.637C49.8396 59.3917 50.2942 59.0487 50.6695 58.6276C51.0447 58.2065 51.3333 57.7155 51.5187 57.1827L58.8115 36.2632C58.9974 35.7307 59.0765 35.1668 59.0443 34.6037C59.0121 34.0406 58.8693 33.4894 58.6241 32.9815C58.3788 32.4736 58.0358 32.019 57.6148 31.6437C57.1938 31.2683 56.703 30.9796 56.1704 30.7941L43.3472 26.331C41.86 25.8106 40.2957 25.5449 38.72 25.545Z" fill="#5254F1"/>
<path d="M59.3491 48.0034C56.2049 57.022 50.4597 63.2179 45.0115 61.3174L43.6612 60.8475C43.4124 60.756 43.1956 60.5941 43.0374 60.3814C42.8791 60.1687 42.7862 59.9146 42.7701 59.6499C42.754 59.3853 42.8153 59.1218 42.9466 58.8915C43.0778 58.6611 43.2734 58.4741 43.5093 58.3531C47.153 56.4596 50.1575 51.5843 52.2659 45.5334C54.3743 39.4826 55.0607 33.7985 53.3786 30.0482C53.2692 29.8068 53.2325 29.5388 53.273 29.2769C53.3135 29.015 53.4293 28.7705 53.6065 28.5734C53.7836 28.3763 54.0143 28.235 54.2704 28.1669C54.5264 28.0987 54.7968 28.1066 55.0485 28.1896L56.397 28.6595C61.8453 30.56 62.4933 38.9812 59.3491 48.0034Z" fill="#5254F1"/>
<path d="M47.029 62.189C46.2824 62.1882 45.5412 62.0613 44.8368 61.8135L43.4813 61.3401C43.1374 61.2207 42.8366 61.002 42.617 60.7115C42.3975 60.4211 42.2691 60.0721 42.2481 59.7086C42.2187 59.3385 42.2997 58.968 42.481 58.644C42.6623 58.32 42.9357 58.057 43.2665 57.8884C46.5242 56.1941 49.5444 51.745 51.7698 45.3605C53.9952 38.976 54.39 33.6151 52.8982 30.263C52.7449 29.9248 52.6951 29.5488 52.7551 29.1823C52.815 28.8158 52.9822 28.4753 53.2354 28.2036C53.4787 27.9319 53.797 27.7385 54.1502 27.6477C54.5034 27.5569 54.8756 27.5729 55.2197 27.6935L56.17 28.0254L56.5717 28.1652C59.3666 29.1399 61.1134 31.7094 61.6164 35.5942C62.0741 39.121 61.4418 43.5893 59.8452 48.1711C58.2486 52.7529 55.9568 56.6535 53.41 59.1304C51.3226 61.1654 49.1531 62.189 47.029 62.189ZM54.6048 28.6385C54.4914 28.6393 54.3795 28.664 54.2762 28.7109C54.173 28.7579 54.0808 28.8261 54.0057 28.911C53.8922 29.033 53.8174 29.1859 53.7907 29.3503C53.7639 29.5148 53.7865 29.6834 53.8555 29.8351C55.9167 34.4449 54.397 41.0145 52.7602 45.7064C51.1235 50.3982 48.2308 56.4893 43.7503 58.8177C43.6021 58.8938 43.4797 59.012 43.3986 59.1575C43.3175 59.3029 43.2812 59.4692 43.2944 59.6352C43.3017 59.7953 43.3571 59.9495 43.4534 60.0775C43.5497 60.2056 43.6824 60.3017 43.8342 60.3532L45.1809 60.823C48.2099 61.8711 50.9296 60.0772 52.6781 58.3775C55.1132 56.0106 57.3054 52.2638 58.853 47.8287C60.4007 43.3936 61.0103 39.0948 60.5736 35.727C60.2609 33.3112 59.253 30.2089 56.2241 29.1521L54.8738 28.6822C54.7871 28.6533 54.6963 28.6386 54.6048 28.6385V28.6385Z" fill="#5254F1"/>
<path d="M9.04066 29.5696C2.91119 25.6603 0.132055 21.9291 0.565257 18.2312C0.631103 17.6941 0.805513 17.176 1.07788 16.7085C1.35025 16.2409 1.71488 15.8337 2.14959 15.5115C4.84488 13.4153 10.3018 13.7752 13.329 14.1787C16.9746 14.5507 22.304 14.0511 22.8647 12.1349C23.2141 10.9279 21.5389 8.8597 17.7239 7.40812C10.5481 4.67789 3.08936 4.04556 3.016 4.04556L3.29548 0.562469C3.62038 0.588671 11.3307 1.23498 18.9659 4.14163C25.5286 6.63953 26.9749 10.5384 26.2185 13.1166C25.4622 15.6949 22.8839 17.1901 18.5327 17.6373C16.6738 17.8142 14.8025 17.8177 12.943 17.6478H12.8941C8.29827 17.0329 5.26236 17.5185 4.29115 18.2731C4.05533 18.4565 4.04136 18.5771 4.03437 18.6417C3.70598 21.4365 7.90525 25.3109 15.5631 29.2726C19.286 31.1654 23.1156 32.8405 27.0325 34.2894C27.4592 34.4473 27.8075 34.7654 28.0032 35.1761C28.199 35.5868 28.2267 36.0577 28.0806 36.4886V36.4886C28.0058 36.7109 27.887 36.9159 27.7312 37.0913C27.5754 37.2667 27.3859 37.409 27.174 37.5096C26.9621 37.6102 26.7321 37.667 26.4977 37.6768C26.2633 37.6865 26.0293 37.649 25.8098 37.5664C21.7696 36.0728 17.8204 34.344 13.9823 32.3889C12.1447 31.4386 10.4975 30.4989 9.04066 29.5696Z" fill="white"/>
<path d="M26.4141 38.2004C26.1445 38.2004 25.877 38.1518 25.6245 38.0572C21.5671 36.5557 17.601 34.8181 13.7464 32.8535C11.9001 31.8998 10.2231 30.9425 8.76284 30.0115C2.43598 25.9782 -0.413024 22.1038 0.0481271 18.1701C0.121702 17.5638 0.317732 16.9788 0.624316 16.4506C0.9309 15.9224 1.34164 15.462 1.83159 15.0975C4.67361 12.8843 10.2983 13.2459 13.4075 13.6529C17.2033 14.0424 21.9563 13.3978 22.372 11.9829C22.6113 11.1654 21.2436 9.29988 17.5457 7.89372C10.438 5.19668 3.04736 4.56959 2.97399 4.56959L2.44996 4.52767L2.81329 0L3.33732 0.0419211C3.66572 0.0681229 11.4529 0.723169 19.1527 3.65253C26.0508 6.2727 27.5373 10.4737 26.7198 13.2598C25.9023 16.046 23.1703 17.681 18.5868 18.1508C16.6907 18.3313 14.782 18.3348 12.8852 18.1613H12.8328C8.40125 17.5692 5.46665 18.0146 4.61073 18.6854C4.58862 18.702 4.56762 18.7201 4.54784 18.7395C4.30504 21.2723 8.50082 25.0279 15.7954 28.8062C19.4994 30.6895 23.3097 32.3558 27.2071 33.7968C27.7093 33.9803 28.1306 34.3351 28.3969 34.7987C28.6631 35.2623 28.7573 35.805 28.6627 36.3313C28.5681 36.8575 28.291 37.3334 27.8799 37.6754C27.4689 38.0173 26.9505 38.2032 26.4158 38.2004H26.4141ZM8.94625 14.3918C6.53044 14.3918 4.0011 14.7411 2.46917 15.9254C2.09013 16.2057 1.77192 16.56 1.53382 16.9668C1.29572 17.3737 1.14268 17.8246 1.08397 18.2923C0.673475 21.7859 3.36702 25.3319 9.32181 29.1224C10.7559 30.036 12.4049 30.9775 14.2215 31.9172C18.0382 33.8648 21.9659 35.5866 25.9844 37.0738C26.2813 37.1625 26.6009 37.1352 26.8785 36.9974C27.156 36.8595 27.3709 36.6214 27.4796 36.3312C27.5884 36.041 27.5828 35.7203 27.4641 35.434C27.3455 35.1477 27.1225 34.9171 26.8403 34.789C22.9029 33.3322 19.0535 31.6477 15.3115 29.7442C7.34095 25.6148 3.14867 21.6531 3.51025 18.5858C3.52908 18.4396 3.57964 18.2993 3.65839 18.1746C3.73715 18.05 3.84219 17.9441 3.96616 17.8644C5.25529 16.8617 8.78729 16.5752 12.9604 17.1342H13.0005C14.823 17.2984 16.6566 17.2949 18.4785 17.1237C22.5956 16.6993 25.0306 15.3036 25.7136 12.9769C26.4123 10.6117 25.0149 7.00985 18.7771 4.63772C12.2494 2.15379 5.65705 1.33455 3.77402 1.14415L3.57663 3.58965C5.40726 3.78354 11.7551 4.59055 17.9003 6.93299C22.2463 8.58545 23.7764 10.872 23.3572 12.2974C22.6148 14.8285 16.2373 15.0171 13.266 14.7132C11.834 14.5129 10.3904 14.4055 8.9445 14.3918H8.94625Z" fill="#5254F1"/>
<path d="M77.1639 6.6117L76.2266 7.08049L79.8495 14.3249L80.7869 13.8561L77.1639 6.6117Z" fill="#5254F1"/>
<path d="M96.9864 4.98706L92.5332 14.5325L93.483 14.9756L97.9362 5.43016L96.9864 4.98706Z" fill="#5254F1"/>
<path d="M108.869 23.2244L102.449 25.7145L102.828 26.6916L109.248 24.2015L108.869 23.2244Z" fill="#5254F1"/>
<path d="M39.0196 86.4655L33.377 89.1328L33.8249 90.0803L39.4675 87.4131L39.0196 86.4655Z" fill="#5254F1"/>
<path d="M50.5261 96.5782L44.9863 104.948L45.8603 105.526L51.4001 97.1566L50.5261 96.5782Z" fill="#5254F1"/>
<path d="M66.2561 97.1753L65.3086 97.6232L67.8654 103.032L68.8129 102.584L66.2561 97.1753Z" fill="#5254F1"/>
</svg>
