<svg width="18" height="13" viewBox="0 0 18 13" fill="none" xmlns="http://www.w3.org/2000/svg">
<path d="M8.73713 5.82353L16.943 0.396608C16.6131 0.141863 16.2125 0.00284305 15.8001 0H1.67417C1.26178 0.00284305 0.86116 0.141863 0.53125 0.396608L8.73713 5.82353Z" fill="#003C78"/>
<path d="M9.34714 6.6927L9.23786 6.74523H9.18643C9.12724 6.77223 9.06438 6.78994 9 6.79775V6.79775C8.94664 6.80461 8.89265 6.80461 8.83929 6.79775H8.78786L8.67857 6.74523L0.0642857 1.05957C0.0231288 1.21815 0.00153302 1.38136 0 1.54541V10.737C0 11.2594 0.203188 11.7604 0.564866 12.1297C0.926543 12.4991 1.41708 12.7066 1.92857 12.7066H16.0714C16.5829 12.7066 17.0735 12.4991 17.4351 12.1297C17.7968 11.7604 18 11.2594 18 10.737V1.54541C17.9985 1.38136 17.9769 1.21815 17.9357 1.05957L9.34714 6.6927Z" fill="#003C78"/>
</svg>
