<svg width="1632" height="302" viewBox="0 0 1632 302" fill="none" xmlns="http://www.w3.org/2000/svg">
<g filter="url(#filter0_d_651_26)">
<rect x="89.0391" y="79" width="1440" height="189" fill="white"/>
</g>
<circle cx="255.039" cy="225.861" r="14.25" stroke="#494949" stroke-width="3.5"/>
<mask id="mask0_651_26" style="mask-type:alpha" maskUnits="userSpaceOnUse" x="1467" y="202" width="72" height="71">
<mask id="mask1_651_26" style="mask-type:alpha" maskUnits="userSpaceOnUse" x="1467" y="202" width="72" height="71">
<circle cx="1502.68" cy="237.498" r="33.7065" transform="rotate(-5.40159 1502.68 237.498)" stroke="white" stroke-width="3.5"/>
</mask>
<g mask="url(#mask1_651_26)">
<rect x="1481.24" y="152.467" width="76.8224" height="130.007" transform="rotate(25.3313 1481.24 152.467)" fill="#494949"/>
</g>
</mask>
<g mask="url(#mask0_651_26)">
<rect x="1512.79" y="197.959" width="14.7735" height="24.6226" transform="rotate(-5.40159 1512.79 197.959)" fill="#494949"/>
<path d="M1447.14 194.273L1511.86 188.154L1519.09 264.636L1487.07 267.663L1487.06 267.665L1485.04 267.855L1454.38 270.755L1447.14 194.273Z" fill="#494949"/>
</g>
<circle cx="1152.04" cy="221.861" r="8" stroke="#494949" stroke-width="2"/>
<mask id="mask2_651_26" style="mask-type:alpha" maskUnits="userSpaceOnUse" x="1472" y="79" width="99" height="80">
<mask id="mask3_651_26" style="mask-type:alpha" maskUnits="userSpaceOnUse" x="1472" y="0" width="160" height="159">
<circle cx="1551.68" cy="79.5" r="78" transform="rotate(90 1551.68 79.5)" stroke="white" stroke-width="3"/>
</mask>
<g mask="url(#mask3_651_26)">
<rect x="1570.18" y="79" width="149" height="145" transform="rotate(90 1570.18 79)" fill="#494949"/>
</g>
</mask>
<g mask="url(#mask2_651_26)">
<rect x="1472.04" y="79" width="57" height="77" fill="#494949"/>
</g>
<mask id="mask4_651_26" style="mask-type:alpha" maskUnits="userSpaceOnUse" x="78" y="78" width="82" height="99">
<mask id="mask5_651_26" style="mask-type:alpha" maskUnits="userSpaceOnUse" x="0" y="17" width="160" height="160">
<circle cx="79.5397" cy="97.3616" r="77.75" transform="rotate(0.0276758 79.5397 97.3616)" stroke="white" stroke-width="3.5"/>
</mask>
<g mask="url(#mask5_651_26)">
<rect x="79.0469" y="78.8613" width="149" height="145" transform="rotate(0.0276758 79.0469 78.8613)" fill="#494949"/>
</g>
</mask>
<g mask="url(#mask4_651_26)">
<rect x="89.0391" y="79" width="70" height="98" fill="#494949"/>
</g>
<defs>
<filter id="filter0_d_651_26" x="59.0391" y="53" width="1500" height="249" filterUnits="userSpaceOnUse" color-interpolation-filters="sRGB">
<feFlood flood-opacity="0" result="BackgroundImageFix"/>
<feColorMatrix in="SourceAlpha" type="matrix" values="0 0 0 0 0 0 0 0 0 0 0 0 0 0 0 0 0 0 127 0" result="hardAlpha"/>
<feOffset dy="4"/>
<feGaussianBlur stdDeviation="15"/>
<feComposite in2="hardAlpha" operator="out"/>
<feColorMatrix type="matrix" values="0 0 0 0 0 0 0 0 0 0 0 0 0 0 0 0 0 0 0.08 0"/>
<feBlend mode="normal" in2="BackgroundImageFix" result="effect1_dropShadow_651_26"/>
<feBlend mode="normal" in="SourceGraphic" in2="effect1_dropShadow_651_26" result="shape"/>
</filter>
</defs>
</svg>
