<svg width="15" height="15" viewBox="0 0 15 15" fill="none" xmlns="http://www.w3.org/2000/svg">
<path d="M0.210029 4.81H3.21003V14.49H0.210029V4.81ZM1.74003 2.37309e-10C2.08374 5.6766e-06 2.41975 0.101807 2.70567 0.292562C2.99159 0.483318 3.21462 0.75448 3.3466 1.07184C3.47859 1.3892 3.51362 1.73854 3.44729 2.0758C3.38096 2.41305 3.21623 2.7231 2.97389 2.96684C2.73154 3.21057 2.42244 3.37707 2.08557 3.44534C1.74871 3.5136 1.39917 3.48057 1.08106 3.3504C0.762947 3.22024 0.490511 2.99878 0.298121 2.71395C0.10573 2.42913 0.0020041 2.09371 2.87382e-05 1.75C-0.00128933 1.52066 0.0427444 1.29332 0.129597 1.08106C0.21645 0.868797 0.344409 0.675799 0.506114 0.513165C0.667819 0.35053 0.86008 0.221467 1.07184 0.133399C1.2836 0.0453316 1.51068 -3.78735e-06 1.74003 2.37309e-10ZM5.13003 4.81H8.02003V6.13C8.30932 5.6363 8.72724 5.23041 9.22918 4.95567C9.73112 4.68092 10.2982 4.54762 10.87 4.57C13.87 4.57 14.48 6.57 14.48 9.18V14.49H11.48V9.81C11.48 8.69 11.48 7.24 9.92003 7.24C8.36003 7.24 8.12003 8.46 8.12003 9.72V14.51H5.12003L5.13003 4.81Z" fill="white"/>
</svg>
