<svg width="21" height="14" viewBox="0 0 21 14" fill="none" xmlns="http://www.w3.org/2000/svg">
<path fill-rule="evenodd" clip-rule="evenodd" d="M19.5751 12.8567C19.3541 12.9825 19.1043 13.0491 18.8501 13.05H1.45006C1.19536 13.0523 0.944806 12.9855 0.725056 12.8567L6.52506 7.05667L7.95089 8.4825C8.2418 8.76254 8.58705 8.97995 8.96531 9.12127C9.34357 9.2626 9.74679 9.32485 10.1501 9.30417C10.5531 9.32264 10.9557 9.25937 11.3336 9.11816C11.7116 8.97695 12.057 8.76073 12.3492 8.4825L13.7751 7.05667L19.5751 12.8567ZM20.0826 12.325L14.2826 6.525L20.0826 0.725C20.2084 0.945984 20.275 1.19572 20.2759 1.45V11.6C20.2984 11.8569 20.23 12.1135 20.0826 12.325ZM0.193389 12.325C0.0675823 12.104 0.00098719 11.8543 5.59079e-05 11.6V1.45C-0.00221273 1.1953 0.0646006 0.94475 0.193389 0.725L5.99339 6.525L0.193389 12.325ZM19.5751 0.193333L11.8176 7.95083C11.5967 8.16309 11.335 8.32825 11.0483 8.43626C10.7617 8.54427 10.4561 8.59289 10.1501 8.57917C9.84404 8.59289 9.53842 8.54427 9.25177 8.43626C8.96512 8.32825 8.70342 8.16309 8.48256 7.95083L0.725056 0.193333C0.94604 0.0675264 1.19577 0.000931283 1.45006 0H18.8501C19.1043 0.000927784 19.3541 0.0675232 19.5751 0.193333Z" fill="white"/>
</svg>
