<svg width="23" height="20" viewBox="0 0 23 20" fill="none" xmlns="http://www.w3.org/2000/svg">
<path d="M11.1611 8.78472L21.6464 0.598278C21.2248 0.213998 20.7129 0.00428871 20.186 0H2.13617C1.60923 0.00428871 1.09733 0.213998 0.675781 0.598278L11.1611 8.78472Z" fill="#21409A"/>
<path d="M11.9436 10.0947L11.8039 10.1739H11.7382C11.6626 10.2147 11.5823 10.2414 11.5 10.2531C11.4318 10.2635 11.3628 10.2635 11.2946 10.2531H11.2289L11.0893 10.1739L0.0821428 1.59717C0.0295534 1.83639 0.00195886 2.08259 0 2.33005V16.1955C0 16.9835 0.259629 17.7392 0.721773 18.2964C1.18392 18.8536 1.81072 19.1666 2.46429 19.1666H20.5357C21.1893 19.1666 21.8161 18.8536 22.2782 18.2964C22.7404 17.7392 23 16.9835 23 16.1955V2.33005C22.998 2.08259 22.9704 1.83639 22.9179 1.59717L11.9436 10.0947Z" fill="#21409A"/>
</svg>
