<svg width="22" height="22" viewBox="0 0 22 22" fill="none" xmlns="http://www.w3.org/2000/svg">
<path d="M15.9487 20.1674C12.2062 20.1626 8.6184 18.6737 5.97206 16.0274C3.32573 13.3811 1.83688 9.79324 1.83203 6.05076C1.83203 4.93243 2.27629 3.8599 3.06706 3.06912C3.85784 2.27834 4.93037 1.83409 6.0487 1.83409C6.28551 1.83229 6.52193 1.85378 6.75453 1.89826C6.9794 1.93153 7.20046 1.9868 7.41453 2.06326C7.56509 2.11608 7.69926 2.20729 7.80376 2.32787C7.90826 2.44845 7.97947 2.59422 8.01036 2.75076L9.2662 8.25076C9.30005 8.40005 9.29597 8.55544 9.25434 8.70275C9.21271 8.85006 9.13485 8.9846 9.02787 9.09409C8.9087 9.22242 8.89953 9.23159 7.77203 9.81826C8.67494 11.799 10.2591 13.3897 12.2362 14.3008C12.832 13.1641 12.8412 13.1549 12.9695 13.0358C13.079 12.9288 13.2136 12.8509 13.3609 12.8093C13.5082 12.7676 13.6636 12.7636 13.8129 12.7974L19.3129 14.0533C19.4644 14.0884 19.6045 14.1616 19.7199 14.2658C19.8354 14.37 19.9224 14.5019 19.9729 14.6491C20.0502 14.8667 20.1085 15.0906 20.147 15.3183C20.1839 15.5486 20.2023 15.7816 20.202 16.0149C20.1851 17.1285 19.7284 18.1901 18.9315 18.9681C18.1346 19.7461 17.0623 20.1772 15.9487 20.1674V20.1674Z" fill="#003C78"/>
</svg>
