<svg width="48" height="48" viewBox="0 0 48 48" fill="none" xmlns="http://www.w3.org/2000/svg">
<path d="M24 15C27.7222 15 30.75 11.9715 30.75 8.25C30.75 4.5285 27.7222 1.5 24 1.5C20.2778 1.5 17.25 4.5285 17.25 8.25C17.25 11.9715 20.2778 15 24 15ZM21.1298 12.6405C21.2442 12.0817 21.5177 11.5679 21.9172 11.1607C22.4822 10.5977 23.2474 10.2818 24.045 10.2825C25.437 10.2825 26.6325 11.2613 26.946 12.5933C26.0776 13.1849 25.0509 13.501 24 13.5C22.9798 13.5003 21.9819 13.2014 21.1298 12.6405V12.6405ZM22.545 7.2825C22.545 6.45525 23.2178 5.7825 24.045 5.7825C24.8723 5.7825 25.545 6.45525 25.545 7.2825C25.545 8.10975 24.8723 8.7825 24.045 8.7825C23.2178 8.7825 22.545 8.10975 22.545 7.2825V7.2825ZM24 3C26.8942 3 29.25 5.355 29.25 8.25C29.2499 9.41746 28.8583 10.5512 28.1377 11.4698C27.741 10.5731 27.0627 9.83036 26.2058 9.354C26.7433 8.79833 27.0442 8.05566 27.045 7.2825C27.045 5.628 25.6995 4.2825 24.045 4.2825C22.3905 4.2825 21.045 5.628 21.045 7.2825C21.045 8.08125 21.3638 8.8035 21.8738 9.34125C21.507 9.54375 21.1635 9.7965 20.856 10.1003C20.4524 10.5138 20.1321 11.0012 19.9125 11.5357C19.1596 10.6062 18.7492 9.44616 18.75 8.25C18.75 5.355 21.1058 3 24 3ZM39.75 15C43.4722 15 46.5 11.9715 46.5 8.25C46.5 4.5285 43.4722 1.5 39.75 1.5C36.0278 1.5 33 4.5285 33 8.25C33 11.9715 36.0278 15 39.75 15ZM39 3.06V3.75H40.5V3.06C41.6195 3.22337 42.6563 3.74375 43.4563 4.54372C44.2563 5.34369 44.7766 6.38053 44.94 7.5H44.25V9H44.94C44.7766 10.1195 44.2563 11.1563 43.4563 11.9563C42.6563 12.7563 41.6195 13.2766 40.5 13.44V12.75H39V13.44C37.8805 13.2766 36.8437 12.7563 36.0437 11.9563C35.2437 11.1563 34.7234 10.1195 34.56 9H35.25V7.5H34.56C34.7234 6.38053 35.2437 5.34369 36.0437 4.54372C36.8437 3.74375 37.8805 3.22337 39 3.06ZM8.25 15C11.9722 15 15 11.9715 15 8.25C15 4.5285 11.9722 1.5 8.25 1.5C4.52775 1.5 1.5 4.5285 1.5 8.25C1.5 11.9715 4.52775 15 8.25 15ZM8.25 3C11.1442 3 13.5 5.355 13.5 8.25C13.5 11.145 11.1442 13.5 8.25 13.5C5.35575 13.5 3 11.145 3 8.25C3 5.355 5.35575 3 8.25 3Z" fill="#078CEB"/>
<path d="M8.25 10.5C7.836 10.5 7.5 10.1632 7.5 9.75H6C6 10.7265 6.62925 11.5515 7.5 11.862V12.75H9V11.862C9.43742 11.7078 9.81642 11.422 10.085 11.0439C10.3535 10.6658 10.4985 10.2138 10.5 9.75C10.5 8.5095 9.4905 7.5 8.25 7.5C8.05689 7.49136 7.87455 7.40857 7.74096 7.26886C7.60736 7.12916 7.5328 6.9433 7.5328 6.75C7.5328 6.5567 7.60736 6.37084 7.74096 6.23114C7.87455 6.09143 8.05689 6.00864 8.25 6C8.664 6 9 6.33675 9 6.75H10.5C10.4985 6.2862 10.3535 5.83422 10.085 5.45609C9.81642 5.07795 9.43742 4.79219 9 4.638V3.75H7.5V4.638C7.06258 4.79219 6.68358 5.07795 6.41502 5.45609C6.14646 5.83422 6.00149 6.2862 6 6.75C6 7.9905 7.0095 9 8.25 9C8.44311 9.00864 8.62545 9.09143 8.75904 9.23114C8.89264 9.37084 8.9672 9.5567 8.9672 9.75C8.9672 9.9433 8.89264 10.1292 8.75904 10.2689C8.62545 10.4086 8.44311 10.4914 8.25 10.5ZM41.4697 11.0302L42.5303 9.96975L40.5 7.9395V4.5H39V8.25C39 8.44875 39.0787 8.64 39.2197 8.78025L41.4697 11.0302ZM46.5 40.6207H44.61C44.4581 39.8993 44.2686 39.1864 44.0422 38.4847L45.675 37.542C45.7605 37.493 45.8355 37.4275 45.8956 37.3494C45.9557 37.2713 45.9998 37.1821 46.0253 37.0868C46.0508 36.9916 46.0573 36.8923 46.0443 36.7946C46.0312 36.6969 45.999 36.6027 45.9495 36.5175L42.3202 30.2317C42.2711 30.1463 42.2057 30.0714 42.1275 30.0113C42.0494 29.9513 41.9602 29.9072 41.865 29.8817C41.7698 29.8562 41.6705 29.8498 41.5728 29.8627C41.4752 29.8757 41.381 29.9078 41.2958 29.9573L39.657 30.9038C39.1638 30.3566 38.6426 29.8354 38.0955 29.3423L39.042 27.7035C39.1415 27.5312 39.1684 27.3265 39.1169 27.1344C39.0654 26.9423 38.9398 26.7785 38.7675 26.679L32.4817 23.0497C32.3095 22.9503 32.1048 22.9233 31.9127 22.9748C31.7205 23.0263 31.5567 23.152 31.4573 23.3243L30.5145 24.957C29.8131 24.73 29.1001 24.5405 28.3785 24.3893V22.5C28.3785 22.3011 28.2995 22.1103 28.1588 21.9697C28.0182 21.829 27.8274 21.75 27.6285 21.75H20.37C20.1711 21.75 19.9803 21.829 19.8397 21.9697C19.699 22.1103 19.62 22.3011 19.62 22.5V24.39C18.8932 24.543 18.1793 24.7328 17.484 24.9578L16.5427 23.325C16.4433 23.1527 16.2795 23.0271 16.0873 22.9756C15.8952 22.9241 15.6905 22.951 15.5182 23.0505L9.2325 26.6798C9.14714 26.7289 9.07231 26.7945 9.0123 26.8726C8.95228 26.9507 8.90827 27.0399 8.88278 27.1351C8.85728 27.2302 8.8508 27.3295 8.86371 27.4272C8.87661 27.5248 8.90866 27.619 8.958 27.7042L9.9045 29.343C9.35717 29.836 8.83596 30.3572 8.343 30.9045L6.70425 29.958C6.53185 29.8592 6.32735 29.8325 6.13539 29.884C5.94344 29.9354 5.77963 30.0607 5.67975 30.2325L2.04975 36.5175C2.00042 36.6029 1.96841 36.6971 1.95554 36.7949C1.94268 36.8926 1.94922 36.992 1.97479 37.0872C2.00035 37.1824 2.04444 37.2717 2.10454 37.3498C2.16463 37.428 2.23955 37.4936 2.325 37.5427L3.95775 38.4855C3.73275 39.1807 3.543 39.8955 3.39 40.6215H1.5C1.30109 40.6215 1.11032 40.7005 0.96967 40.8412C0.829018 40.9818 0.75 41.1726 0.75 41.3715V45C0.75 45.1989 0.829018 45.3897 0.96967 45.5303C1.11032 45.671 1.30109 45.75 1.5 45.75H8.0325C8.23141 45.75 8.42218 45.671 8.56283 45.5303C8.70348 45.3897 8.7825 45.1989 8.7825 45C8.7825 36.609 15.6097 29.7817 24 29.7817C32.3903 29.7817 39.2175 36.609 39.2175 45C39.2175 45.1989 39.2965 45.3897 39.4372 45.5303C39.5778 45.671 39.7686 45.75 39.9675 45.75H46.5C46.6989 45.75 46.8897 45.671 47.0303 45.5303C47.171 45.3897 47.25 45.1989 47.25 45V41.3707C47.25 41.1718 47.171 40.9811 47.0303 40.8404C46.8897 40.6998 46.6989 40.6207 46.5 40.6207ZM45.75 44.25H40.701C40.3073 35.3782 32.9662 28.2817 24 28.2817C15.0338 28.2817 7.69275 35.3782 7.299 44.25H2.25V42.1207H4.00725C4.18311 42.1207 4.35337 42.0589 4.48826 41.9461C4.62316 41.8332 4.71412 41.6766 4.74525 41.5035C4.93481 40.4467 5.21151 39.4074 5.5725 38.3962C5.63192 38.2308 5.63135 38.0498 5.5709 37.8848C5.51045 37.7197 5.39395 37.5812 5.24175 37.4933L3.72525 36.618L6.6045 31.632L8.127 32.511C8.27913 32.5989 8.45729 32.6306 8.6304 32.6006C8.80352 32.5706 8.9606 32.4807 9.07425 32.3468C9.76905 31.5283 10.5293 30.7678 11.3475 30.0728C11.4813 29.9591 11.571 29.8022 11.6011 29.6292C11.6311 29.4563 11.5995 29.2783 11.5117 29.1262L10.6328 27.6038L15.6188 24.7245L16.4948 26.241C16.5827 26.3932 16.7212 26.5097 16.8863 26.5701C17.0513 26.6306 17.2323 26.6312 17.3978 26.5718C18.4089 26.2107 19.4482 25.934 20.505 25.7445C20.6779 25.7132 20.8344 25.6222 20.9471 25.4873C21.0598 25.3524 21.1215 25.1823 21.1215 25.0065V23.25H26.88V25.0072C26.88 25.183 26.9417 25.3532 27.0544 25.4881C27.1671 25.6229 27.3236 25.714 27.4965 25.7452C28.5652 25.9372 29.61 26.2155 30.6038 26.5725C30.9465 26.6933 31.326 26.556 31.5067 26.2417L32.3827 24.7252L37.3688 27.6045L36.4897 29.127C36.402 29.279 36.3704 29.457 36.4004 29.63C36.4305 29.8029 36.5202 29.9599 36.654 30.0735C37.4726 30.7682 38.2328 31.5287 38.9272 32.3475C39.0409 32.4815 39.198 32.5713 39.3711 32.6014C39.5442 32.6314 39.7224 32.5997 39.8745 32.5117L41.397 31.6327L44.2762 36.6188L42.7598 37.494C42.6075 37.5819 42.4911 37.7205 42.4306 37.8855C42.3702 38.0506 42.3696 38.2316 42.429 38.397C42.79 39.4082 43.0667 40.4475 43.2562 41.5043C43.2874 41.6773 43.3783 41.834 43.5132 41.9468C43.6481 42.0596 43.8184 42.1215 43.9943 42.1215H45.75V44.25Z" fill="#078CEB"/>
<path d="M24 31.5C16.9695 31.5 11.25 37.2195 11.25 44.25C11.2498 44.359 11.2734 44.4668 11.3191 44.5657C11.3649 44.6647 11.4317 44.7525 11.5149 44.8229C11.5982 44.8933 11.6958 44.9447 11.8009 44.9735C11.9061 45.0023 12.0163 45.0077 12.1238 44.9895L16.6238 44.2395C16.7987 44.2102 16.9577 44.1199 17.0723 43.9845C17.187 43.8491 17.2499 43.6774 17.25 43.5C17.25 39.7785 20.2778 36.75 24 36.75C27.7223 36.75 30.75 39.7785 30.75 43.5C30.7501 43.6775 30.8131 43.8493 30.9279 43.9847C31.0428 44.1201 31.2019 44.2104 31.377 44.2395L35.877 44.9895C35.9844 45.0076 36.0945 45.0021 36.1996 44.9732C36.3047 44.9444 36.4022 44.893 36.4853 44.8226C36.5684 44.7521 36.6352 44.6644 36.6809 44.5655C36.7266 44.4666 36.7502 44.359 36.75 44.25C36.75 37.2195 31.0305 31.5 24 31.5ZM15.774 42.8602L12.7853 43.359C12.9285 41.5418 13.5053 39.846 14.412 38.3722L16.8743 39.357C16.2473 40.4265 15.8711 41.6243 15.774 42.8602V42.8602ZM17.7735 38.1015L15.3195 37.1198C16.629 35.5259 18.3508 34.3219 20.2973 33.639L20.9258 35.8447C19.7112 36.3369 18.6309 37.1104 17.7735 38.1015ZM22.3635 35.4158L21.741 33.2325C22.4715 33.0825 23.226 33 24 33C25.368 33 26.676 33.255 27.8895 33.7042L26.6985 35.7135C25.8315 35.4082 24.9192 35.2515 24 35.25C23.4398 35.25 22.893 35.3085 22.3635 35.4158ZM28.0725 36.3375L29.2688 34.3192C30.861 35.17 32.2266 36.3895 33.2513 37.8757L30.714 38.7218C30.0166 37.7451 29.1153 36.9316 28.0725 36.3375V36.3375ZM32.226 42.8602C32.1489 41.8853 31.898 40.932 31.485 40.0455L34.0433 39.1927C34.7024 40.4916 35.1007 41.907 35.2155 43.359L32.226 42.8602V42.8602Z" fill="#078CEB"/>
<path d="M23.25 38.25V42.8565C21.9593 43.1917 21 44.3565 21 45.75C21 45.9489 21.079 46.1397 21.2197 46.2803C21.3603 46.421 21.5511 46.5 21.75 46.5H26.25C26.4489 46.5 26.6397 46.421 26.7803 46.2803C26.921 46.1397 27 45.9489 27 45.75C27 44.3565 26.0407 43.1917 24.75 42.8565V38.25H23.25ZM25.2982 45H22.701C22.8327 44.7722 23.022 44.583 23.25 44.4515C23.4779 44.32 23.7365 44.2507 23.9996 44.2507C24.2628 44.2507 24.5213 44.32 24.7493 44.4515C24.9772 44.583 25.1665 44.7722 25.2982 45ZM39 16.5H40.5V18H39V16.5ZM39 19.5H40.5V21H39V19.5ZM39 22.5H40.5V24H39V22.5ZM23.25 16.5H24.75V18H23.25V16.5ZM23.25 19.5H24.75V21H23.25V19.5ZM7.5 16.5H9V18H7.5V16.5ZM7.5 19.5H9V21H7.5V19.5ZM7.5 22.5H9V24H7.5V22.5Z" fill="#078CEB"/>
</svg>
