<svg width="48" height="48" viewBox="0 0 48 48" fill="none" xmlns="http://www.w3.org/2000/svg">
<path d="M20 26H18V28H20V26Z" fill="#078CEB"/>
<path d="M24 16H8V18H24V16Z" fill="#078CEB"/>
<path d="M28 16H26V18H28V16Z" fill="#078CEB"/>
<path d="M28 21H8V23H28V21Z" fill="#078CEB"/>
<path d="M16 26H8V28H16V26Z" fill="#078CEB"/>
<path d="M22 31H8V33H22V31Z" fill="#078CEB"/>
<path d="M22 36H8V38H22V36Z" fill="#078CEB"/>
<path d="M5 43V10C5 9.73478 5.10536 9.48043 5.29289 9.29289C5.48043 9.10536 5.73478 9 6 9H10V10C10 10.2652 10.1054 10.5196 10.2929 10.7071C10.4804 10.8946 10.7348 11 11 11H27C27.2652 11 27.5196 10.8946 27.7071 10.7071C27.8946 10.5196 28 10.2652 28 10V9H32C32.2652 9 32.5196 9.10536 32.7071 9.29289C32.8946 9.48043 33 9.73478 33 10V16H35V10C35 9.20435 34.6839 8.44129 34.1213 7.87868C33.5587 7.31607 32.7956 7 32 7H28V6C28 5.73478 27.8946 5.48043 27.7071 5.29289C27.5196 5.10536 27.2652 5 27 5H24.781L23.97 1.757C23.9158 1.54075 23.791 1.34881 23.6152 1.21166C23.4395 1.0745 23.2229 1.00001 23 1H15C14.7771 1.00001 14.5605 1.0745 14.3848 1.21166C14.209 1.34881 14.0842 1.54075 14.03 1.757L13.219 5H11C10.7348 5 10.4804 5.10536 10.2929 5.29289C10.1054 5.48043 10 5.73478 10 6V7H6C5.20435 7 4.44129 7.31607 3.87868 7.87868C3.31607 8.44129 3 9.20435 3 10V43C3 43.7956 3.31607 44.5587 3.87868 45.1213C4.44129 45.6839 5.20435 46 6 46H26V44H6C5.73478 44 5.48043 43.8946 5.29289 43.7071C5.10536 43.5196 5 43.2652 5 43ZM12 7H14C14.2229 6.99999 14.4395 6.9255 14.6152 6.78834C14.791 6.65119 14.9158 6.45925 14.97 6.243L15.781 3H22.219L23.03 6.243C23.0842 6.45925 23.209 6.65119 23.3848 6.78834C23.5605 6.9255 23.7771 6.99999 24 7H26V9H12V7Z" fill="#078CEB"/>
<path d="M19 8C20.1046 8 21 7.10457 21 6C21 4.89543 20.1046 4 19 4C17.8954 4 17 4.89543 17 6C17 7.10457 17.8954 8 19 8Z" fill="#078CEB"/>
<path d="M44.1925 27.222L44.8995 27.929L46.3135 26.515L43.4855 23.687L42.0715 25.1L42.7785 25.807L42.0345 26.551C40.8534 25.5682 39.4791 24.8442 38.0005 24.426V23H39.0005C39.2657 23 39.5201 22.8946 39.7076 22.7071C39.8951 22.5196 40.0005 22.2652 40.0005 22V19C40.0005 18.7348 39.8951 18.4804 39.7076 18.2929C39.5201 18.1054 39.2657 18 39.0005 18H31.0005C30.7353 18 30.4809 18.1054 30.2934 18.2929C30.1059 18.4804 30.0005 18.7348 30.0005 19V22C30.0005 22.2652 30.1059 22.5196 30.2934 22.7071C30.4809 22.8946 30.7353 23 31.0005 23H32.0005V24.426C30.5219 24.8445 29.1475 25.5688 27.9665 26.552L27.2225 25.808L27.9295 25.101L26.5155 23.687L23.6875 26.515L25.1005 27.929L25.8075 27.222L26.5515 27.966C25.2129 29.5721 24.3598 31.5264 24.0921 33.6C23.8243 35.6736 24.1531 37.7805 25.0399 39.674C25.9266 41.5674 27.3346 43.1689 29.0989 44.2908C30.8632 45.4127 32.9107 46.0085 35.0015 46.0085C37.0923 46.0085 39.1398 45.4127 40.9041 44.2908C42.6684 43.1689 44.0764 41.5674 44.9631 39.674C45.8499 37.7805 46.1787 35.6736 45.9109 33.6C45.6432 31.5264 44.7901 29.5721 43.4515 27.966L44.1925 27.222ZM32.0005 20H38.0005V21H32.0005V20ZM34.0005 24V23H36.0005V24H34.0005ZM36.0005 43.941V42H34.0005V43.941C31.9736 43.7113 30.0845 42.8009 28.642 41.3585C27.1996 39.916 26.2892 38.0269 26.0595 36H28.0005V34H26.0595C26.2892 31.9731 27.1996 30.084 28.642 28.6415C30.0845 27.1991 31.9736 26.2887 34.0005 26.059V28H36.0005V26.059C38.0274 26.2887 39.9165 27.1991 41.359 28.6415C42.8014 30.084 43.7118 31.9731 43.9415 34H42.0005V36H43.9415C43.7118 38.0269 42.8014 39.916 41.359 41.3585C39.9165 42.8009 38.0274 43.7113 36.0005 43.941V43.941Z" fill="#078CEB"/>
<path d="M33.3356 33.8912C33.1349 34.1924 33.0197 34.5424 33.0023 34.9039C32.9849 35.2654 33.0659 35.6249 33.2367 35.944C33.4075 36.2631 33.6616 36.5299 33.9721 36.7159C34.2826 36.9019 34.6377 37.0002 34.9996 37.0002C35.1339 37.0003 35.2679 36.9873 35.3996 36.9612C35.6575 36.9105 35.9027 36.809 36.1211 36.6628C36.3394 36.5165 36.5266 36.3284 36.6716 36.1092C37.1397 35.0194 37.469 33.8751 37.6516 32.7032L38.1386 30.3032L36.0996 31.6762C35.0888 32.2953 34.1601 33.0395 33.3356 33.8912V33.8912Z" fill="#078CEB"/>
</svg>
