<svg width="48" height="48" viewBox="0 0 48 48" fill="none" xmlns="http://www.w3.org/2000/svg">
<g clip-path="url(#clip0_651_97)">
<path d="M39.1278 33.0181C38.1097 32.1453 36.3642 32.7272 35.0551 33.4544C34.1824 33.9635 34.546 33.7453 27.346 37.1635C27.0551 36.7999 26.6188 36.509 26.1097 36.509C22.546 36.0726 23.4188 36.2908 18.2551 33.5272C15.7097 31.7817 12.4369 31.4908 9.6733 32.7999L6.32784 34.3272L5.81875 33.2362C5.6733 32.9453 5.38239 32.8726 5.09148 33.0181L0.509659 35.2726C0.21875 35.4181 0.146023 35.709 0.291477 35.9999L5.81875 47.4908C5.9642 47.7817 6.25511 47.8544 6.54602 47.709L11.1278 45.4544C11.4188 45.309 11.4915 45.0181 11.346 44.7272L11.0551 44.1453C13.3097 42.7635 13.6006 43.2726 19.2733 45.309C21.9642 46.2544 24.946 45.8908 27.2733 44.3635L39.1278 36.5817C40.2188 35.8544 40.3642 34.109 39.1278 33.0181ZM6.4733 46.5453L1.45511 36.0726L5.01875 34.2544C5.60057 35.5635 9.60057 43.8544 10.0369 44.7272L6.4733 46.5453ZM38.4733 35.709L26.6915 43.4908C24.5824 44.8726 21.9642 45.1635 19.6369 44.3635C14.2551 42.3999 13.2369 41.5999 10.546 43.1999L6.7642 35.3453L10.1097 33.8181C12.5097 32.6544 15.4188 32.9453 17.6006 34.4726C22.7642 37.1635 22.1097 37.1635 25.9642 37.5999C26.3278 37.5999 26.6188 37.9635 26.6188 38.3272C26.6188 38.7635 26.3278 39.0544 25.8915 39.0544C21.5278 39.0544 19.7824 39.0544 17.4551 38.1817C15.5642 37.4544 12.946 36.7999 11.1278 37.6726C10.8369 37.8181 10.7642 38.109 10.8369 38.3999C10.9824 38.6908 11.2733 38.7635 11.5642 38.6908C13.1642 37.9635 15.7097 38.7635 17.0915 39.2726C19.7097 40.2908 21.6733 40.2181 25.8915 40.2181C26.8369 40.2181 27.7097 39.4181 27.6369 38.2544C34.9097 34.7635 34.546 34.9817 35.4915 34.4726C36.8006 33.7453 37.8915 33.5272 38.3278 33.8908C39.0551 34.3999 39.1278 35.0544 38.4733 35.709V35.709Z" fill="#078CEB"/>
<path d="M7.70848 43.2727C7.56302 42.9818 7.27211 42.9091 6.9812 42.9818C6.69029 43.1273 6.61757 43.4182 6.69029 43.7091L7.12666 44.5818C7.19938 44.8 7.41757 44.8727 7.63575 44.8727C7.70848 44.8727 7.7812 44.8727 7.85393 44.8C8.14484 44.6546 8.21757 44.3637 8.14484 44.0727L7.70848 43.2727ZM46.1085 0.654561C46.0357 0.363652 45.8176 0.14547 45.5267 0.218197L39.4176 1.09092C39.1267 1.16365 38.9085 1.38183 38.9812 1.67274L39.1994 3.4182L29.3085 2.03638C26.9812 1.74547 26.1085 2.98183 21.6721 6.76365C21.5994 6.83638 19.0539 9.38183 17.7448 13.7455C17.5994 14.4 17.4539 15.9273 18.3267 16.3637C19.0539 16.7273 19.9267 16 20.5085 15.3455C20.5812 15.2727 21.0903 14.6182 21.3085 13.3091C21.8176 12.9455 23.0539 11.9273 23.3448 10.4727C24.0721 10.4 25.3085 10.0364 26.3994 8.87274H27.6357L28.9448 10.4C29.0176 10.7637 29.2357 12.2182 27.6357 13.0182C27.4903 13.0909 24.0721 15.4182 24.4357 18.6909C24.5812 19.3455 24.9448 20.7273 25.8903 20.8727H25.963C26.763 20.8727 27.1994 19.8546 27.3448 19.4909C27.3448 19.4182 28.2176 17.0182 30.9085 16.4364C31.4176 16.2909 34.3994 15.2 35.0539 15.1273C36.4357 14.9818 38.8357 14.4727 40.363 13.3091L40.5812 14.6909C40.6539 14.9818 40.8721 15.2 41.163 15.1273L47.2721 14.2546C47.563 14.1818 47.7812 13.9637 47.7085 13.6727L46.1085 0.654561ZM35.0539 13.9637C34.1812 14.0364 31.4903 15.1273 30.8357 15.3455C27.563 16.0727 26.5448 18.9818 26.4721 19.0546C26.2539 19.4909 26.1812 19.6364 26.1085 19.7091C25.963 19.4909 25.7448 18.9818 25.5994 18.4727C25.3085 15.9273 28.2176 13.9637 28.2176 13.9637C30.3267 12.9455 30.3267 10.9091 30.0357 10.0364C30.0357 9.96365 29.963 9.89092 29.963 9.8182L28.363 8.00002C28.2903 7.85456 28.1448 7.78183 27.9267 7.78183H26.1812C26.0357 7.78183 25.8903 7.85456 25.7448 8.00002C24.5085 9.52729 22.9812 9.45456 22.9085 9.45456C22.5448 9.45456 22.3267 9.67274 22.3267 9.96365C22.3267 11.4182 20.5812 12.5091 20.5812 12.5091C20.4357 12.5818 20.363 12.7273 20.363 12.8727C20.1448 14.0364 19.7085 14.6182 19.7812 14.6182C19.2721 15.1273 18.9812 15.2727 18.9085 15.3455C18.8357 15.1273 18.8357 14.4727 18.9085 13.9637C20.1448 9.96365 22.5448 7.56365 22.5448 7.56365C26.9085 3.70911 27.4176 2.90911 29.163 3.12729L39.2721 4.43638C40.1448 10.9818 39.9267 9.45456 40.2903 11.9273C39.1267 13.3818 36.2176 13.8182 35.0539 13.9637V13.9637ZM41.6721 14.0364L40.0721 2.03638L45.0903 1.30911L46.6903 13.3091L41.6721 14.0364Z" fill="#078CEB"/>
<path d="M43.7078 10.3271C43.4168 10.3998 43.1987 10.618 43.2714 10.9089L43.4168 11.9271C43.4168 12.218 43.7078 12.4362 43.9259 12.4362H43.9987C44.2896 12.3634 44.5078 12.1453 44.435 11.8544L44.3623 10.7634C44.2896 10.4725 43.9987 10.2544 43.7078 10.3271V10.3271ZM13.5987 25.6725L17.8168 25.818L20.0714 29.3816C20.2896 29.7453 20.8714 29.6725 21.0168 29.3089L22.4714 25.3816L26.5441 24.3634C26.9805 24.218 27.1259 23.7089 26.7623 23.418L23.4896 20.7998L23.7805 16.5816C23.7805 16.1453 23.3441 15.8544 22.9078 16.0725L19.4168 18.3998L15.4896 16.8725C15.0532 16.7271 14.6168 17.0907 14.7623 17.5271L15.9259 21.5998L13.235 24.7998C12.8714 25.0907 13.1623 25.6725 13.5987 25.6725ZM16.8714 22.0362C17.0168 21.8907 17.0168 21.7453 16.9441 21.5271L15.9987 18.2544L19.1259 19.4907C19.2714 19.5634 19.4896 19.5634 19.635 19.418L22.4714 17.5271L22.2532 20.8725C22.2532 21.018 22.3259 21.2362 22.4714 21.3089L25.1623 23.418L21.8896 24.218C21.7441 24.2907 21.5987 24.3634 21.5259 24.5816L20.3623 27.8544L18.5441 25.018C18.4714 24.8725 18.2532 24.7998 18.1078 24.7998L14.7623 24.6544L16.8714 22.0362V22.0362ZM31.9987 32.5089C32.1441 32.7998 32.5078 32.8725 32.7259 32.7271L34.7623 31.5634C35.1259 31.3453 35.1259 30.7634 34.6896 30.618L31.635 29.3089L30.9805 26.0362C30.9078 25.5998 30.3259 25.4544 30.035 25.7453L27.8532 28.218L24.5078 27.8544C24.2896 27.8544 24.0714 27.9271 23.9987 28.0725C23.8532 28.218 23.8532 28.4362 23.9987 28.6544L25.6714 31.5634L24.2896 34.618C24.0714 35.0544 24.435 35.4907 24.8714 35.3453L27.3441 34.7634C27.635 34.6907 27.8532 34.3998 27.7805 34.1089C27.7078 33.818 27.4168 33.5998 27.1259 33.6725L25.7441 33.9634L26.835 31.7089C26.9078 31.5634 26.9078 31.3453 26.835 31.1998L25.5259 29.018L27.9987 29.3089C28.1441 29.3089 28.3623 29.2362 28.5078 29.1634L30.1805 27.2725L30.6896 29.7453C30.6896 29.8907 30.835 30.0362 30.9805 30.1089L33.3078 31.1271L32.2168 31.7089C31.9987 31.9271 31.8532 32.2907 31.9987 32.5089V32.5089Z" fill="#078CEB"/>
</g>
<defs>
<clipPath id="clip0_651_97">
<rect width="48" height="48" fill="white"/>
</clipPath>
</defs>
</svg>
