<svg width="48" height="48" viewBox="0 0 48 48" fill="none" xmlns="http://www.w3.org/2000/svg">
<g clip-path="url(#clip0_651_91)">
<path d="M47.011 45.9532L41.364 42.1414L47.011 37.8355C47.2228 37.6238 47.364 37.3414 47.2228 37.0591C47.1522 36.7767 46.8699 36.5649 46.5875 36.5649H35.8581L37.3404 33.812C37.4816 33.6002 37.4816 33.3179 37.3404 33.1061C37.1993 32.8944 36.9875 32.7532 36.7051 32.7532H11.2934C11.011 32.7532 10.7993 32.8944 10.6581 33.1061C10.5169 33.3179 10.5169 33.6002 10.6581 33.812L12.1404 36.5649H1.41103C1.12868 36.5649 0.846324 36.7767 0.775736 37.0591C0.705147 37.3414 0.775735 37.6944 0.9875 37.8355L6.63456 42.1414L0.9875 45.9532C0.705147 46.0944 0.634559 46.4473 0.705147 46.7297C0.846324 47.0826 1.12868 47.2944 1.41103 47.2944H18.2816C18.4934 47.2944 18.7757 47.1532 18.9169 46.9414C19.0581 46.7297 19.0581 46.4473 18.9169 46.2355L17.8581 44.0473H30.211L29.1522 46.2355C29.011 46.4473 29.0816 46.7297 29.1522 46.9414C29.2934 47.1532 29.5051 47.2944 29.7875 47.2944H46.5875C46.8699 47.2944 47.1522 47.0826 47.2934 46.8002C47.364 46.4473 47.2228 46.1649 47.011 45.9532V45.9532ZM35.5051 34.2355L31.0581 42.6355H16.9404L12.4934 34.2355H35.5051ZM3.74044 45.8826L8.25809 42.8473C8.46985 42.7061 8.54044 42.4944 8.54044 42.2826C8.54044 42.0708 8.46985 41.8591 8.25809 41.7179L3.52868 38.0473H12.9169L17.1522 45.8826H3.74044V45.8826ZM30.8463 45.8826L35.0816 38.0473H44.4699L39.7404 41.6473C39.5287 41.7885 39.4581 42.0002 39.4581 42.212C39.4581 42.4238 39.5993 42.6355 39.7404 42.7767L44.2581 45.812H30.8463V45.8826ZM1.41103 31.7649H13.0581C13.4816 31.7649 13.764 31.4826 13.764 31.0591V29.7179C13.764 27.2473 11.9287 25.1297 9.52868 24.7767C10.5169 24.0708 11.1522 22.9414 11.1522 21.6002C11.1522 19.4826 9.3875 17.7179 7.26985 17.7179C5.15221 17.7179 3.3875 19.4826 3.3875 21.6002C3.3875 22.8708 4.02279 24.0708 5.01103 24.7767C2.61103 25.1297 0.705147 27.1767 0.705147 29.7179V31.0591C0.705147 31.4826 0.9875 31.7649 1.41103 31.7649V31.7649ZM7.26985 19.2002C8.61103 19.2002 9.74044 20.3297 9.74044 21.6708C9.74044 23.012 8.61103 24.1414 7.26985 24.1414C5.92868 24.1414 4.79927 23.012 4.79927 21.6708C4.79927 20.3297 5.92868 19.2002 7.26985 19.2002V19.2002ZM2.11691 29.7179C2.11691 27.7414 3.74044 26.1885 5.64632 26.1885H8.75221C10.7287 26.1885 12.2816 27.812 12.2816 29.7179V30.3532H2.11691V29.7179ZM16.6581 31.7649H31.3404C31.764 31.7649 32.0463 31.4826 32.0463 31.0591V28.3061C32.0463 25.5532 29.7875 23.3649 27.1051 23.3649H26.3993C27.811 22.5885 28.7993 21.0355 28.7993 19.2708C28.7993 16.6591 26.6816 14.5414 24.1404 14.5414C21.5287 14.5414 19.4816 16.6591 19.4816 19.2708C19.4816 21.0355 20.4699 22.5885 21.8816 23.3649H21.0346C18.2816 23.3649 16.0934 25.6238 16.0934 28.3061V31.0591C15.9522 31.4826 16.3051 31.7649 16.6581 31.7649ZM20.7522 19.2002C20.7522 17.3649 22.2346 15.8826 23.9993 15.8826C25.8346 15.8826 27.2463 17.3649 27.2463 19.2002C27.2463 21.0355 25.764 22.5179 23.9993 22.5179C22.2346 22.5179 20.7522 21.0355 20.7522 19.2002V19.2002ZM17.364 28.3061C17.364 26.3297 18.9875 24.7767 20.8934 24.7767H27.0346C29.011 24.7767 30.564 26.4002 30.564 28.3061V30.3532H17.364V28.3061ZM34.9404 31.7649H46.5875C47.011 31.7649 47.2934 31.4826 47.2934 31.0591V29.7179C47.2934 27.2473 45.4581 25.1297 43.0581 24.7767C44.0463 24.0708 44.6816 22.9414 44.6816 21.6002C44.6816 19.4826 42.9169 17.7179 40.7993 17.7179C38.6816 17.7179 36.9169 19.4826 36.9169 21.6002C36.9169 22.8708 37.5522 24.0708 38.5404 24.7767C36.1404 25.1297 34.2346 27.1767 34.2346 29.7179V31.0591C34.2346 31.4826 34.5875 31.7649 34.9404 31.7649V31.7649ZM40.7993 19.2002C42.1404 19.2002 43.2699 20.3297 43.2699 21.6708C43.2699 23.012 42.1404 24.1414 40.7993 24.1414C39.4581 24.1414 38.3287 23.012 38.3287 21.6708C38.3993 20.3297 39.4581 19.2002 40.7993 19.2002V19.2002ZM35.6463 29.7179C35.6463 27.7414 37.2699 26.1885 39.1757 26.1885H42.3522C44.3287 26.1885 45.8816 27.812 45.8816 29.7179V30.3532H35.6463V29.7179ZM3.52868 11.5061L2.89338 15.1061C2.82279 15.3885 2.96397 15.6708 3.17574 15.812C3.3875 15.9532 3.66985 16.0238 3.95221 15.8826L7.19926 14.1885L10.4463 15.8826C10.6581 16.0238 10.9404 15.9532 11.2228 15.812C11.4346 15.6708 11.5757 15.3885 11.5051 15.1061L10.8699 11.5061L13.4816 8.96495C13.6934 8.75318 13.764 8.47083 13.6934 8.25906C13.6228 7.97671 13.411 7.76495 13.1287 7.76495L9.45809 7.20024L7.83456 3.88259C7.76397 3.67083 7.48162 3.52965 7.19926 3.52965C6.9875 3.52965 6.70515 3.67083 6.56397 3.88259L4.94044 7.20024L1.34044 7.76495C1.05809 7.83554 0.846324 7.97671 0.775736 8.25906C0.705147 8.54142 0.775735 8.82377 0.9875 8.96495L3.52868 11.5061ZM5.50515 8.54142C5.71691 8.54142 5.92868 8.32965 6.06985 8.18848L7.19926 5.85907L8.32868 8.18848C8.39927 8.40024 8.61103 8.54142 8.89338 8.54142L11.5051 8.89436L9.59927 10.7297C9.45809 10.8708 9.3875 11.1532 9.3875 11.3649L9.81103 13.9767L7.48162 12.7767C7.41103 12.7061 7.26985 12.7061 7.12868 12.7061C6.9875 12.7061 6.91691 12.7061 6.77574 12.7767L4.44632 13.9767L4.86985 11.3649C4.94044 11.1532 4.79926 10.8708 4.65809 10.7297L2.75221 8.89436L5.50515 8.54142V8.54142ZM20.3287 8.68259L19.6934 12.2826C19.6228 12.5649 19.764 12.8473 19.9757 12.9885C20.1875 13.1297 20.4699 13.2002 20.7522 13.0591L23.9993 11.3649L27.2463 13.0591C27.4581 13.2002 27.7404 13.1297 28.0228 12.9885C28.2346 12.8473 28.3757 12.5649 28.3051 12.2826L27.6699 8.68259L30.2816 6.14142C30.4934 5.92965 30.564 5.6473 30.4934 5.43554C30.4228 5.15318 30.1404 4.94142 29.9287 4.94142L26.2581 4.37671L24.6346 1.05906C24.4228 0.564947 23.5757 0.564947 23.364 1.05906L21.7404 4.37671L18.0699 4.94142C17.7875 5.01201 17.5757 5.15318 17.5051 5.43554C17.4346 5.71789 17.5051 6.00024 17.7169 6.14142L20.3287 8.68259V8.68259ZM22.3051 5.71789C22.5169 5.71789 22.7287 5.50612 22.8699 5.36495L23.9993 2.96495L25.1287 5.29436C25.1993 5.50612 25.411 5.6473 25.6934 5.6473L28.3051 6.00024L26.3993 7.83554C26.2581 7.97671 26.1875 8.25906 26.1875 8.47083L26.611 11.0826L24.2816 9.88259C24.211 9.81201 24.0699 9.81201 23.9287 9.81201C23.7875 9.81201 23.7169 9.81201 23.5757 9.88259L21.2463 11.0826L21.6699 8.47083C21.7404 8.25906 21.5993 7.97671 21.4581 7.83554L19.5522 6.00024L22.3051 5.71789V5.71789ZM37.1287 11.5061L36.4934 15.1061C36.4228 15.3885 36.564 15.6708 36.7757 15.812C36.9875 15.9532 37.2699 16.0238 37.5522 15.8826L40.7993 14.1885L44.0463 15.8826C44.2581 16.0238 44.5404 15.9532 44.8228 15.812C45.0346 15.6708 45.1757 15.3885 45.1051 15.1061L44.4699 11.5061L47.0816 8.96495C47.2934 8.75318 47.364 8.47083 47.2934 8.25906C47.2228 7.97671 47.011 7.83554 46.7287 7.76495L43.0581 7.20024L41.4346 3.88259C41.2228 3.38848 40.3757 3.38848 40.164 3.88259L38.5404 7.20024L34.8699 7.76495C34.5875 7.83554 34.3757 7.97671 34.3051 8.25906C34.2346 8.54142 34.3051 8.82377 34.5169 8.96495L37.1287 11.5061V11.5061ZM39.1051 8.54142C39.3169 8.54142 39.5287 8.32965 39.6699 8.18848L40.7993 5.85907L41.9287 8.18848C41.9993 8.40024 42.211 8.54142 42.4934 8.54142L45.1051 8.89436L43.1993 10.7297C43.0581 10.8708 42.9875 11.1532 42.9875 11.3649L43.411 13.9767L41.0816 12.7767C41.011 12.7061 40.8699 12.7061 40.7287 12.7061C40.5875 12.7061 40.5169 12.7061 40.3757 12.7767L38.1169 13.9767L38.5404 11.3649C38.611 11.1532 38.4699 10.8708 38.3287 10.7297L36.4228 8.89436L39.1051 8.54142Z" fill="#078CEB"/>
</g>
<defs>
<clipPath id="clip0_651_91">
<rect width="48" height="48" fill="white"/>
</clipPath>
</defs>
</svg>
