<svg width="48" height="48" viewBox="0 0 48 48" fill="none" xmlns="http://www.w3.org/2000/svg">
<path d="M24 10.5C23.8011 10.5 23.6103 10.421 23.4697 10.2803C23.329 10.1397 23.25 9.94891 23.25 9.75H21.75C21.7519 10.2137 21.8971 10.6655 22.1656 11.0435C22.4341 11.4216 22.8128 11.7074 23.25 11.862V12.75H24.75V11.862C25.25 11.6859 25.6716 11.3385 25.94 10.8814C26.2084 10.4242 26.3064 9.88682 26.2165 9.36437C26.1267 8.84191 25.8549 8.36811 25.4492 8.02687C25.0435 7.68564 24.5301 7.499 24 7.5C23.8517 7.5 23.7067 7.45601 23.5833 7.3736C23.46 7.29119 23.3639 7.17406 23.3071 7.03701C23.2503 6.89997 23.2355 6.74917 23.2644 6.60368C23.2933 6.4582 23.3648 6.32456 23.4697 6.21967C23.5746 6.11478 23.7082 6.04335 23.8537 6.01441C23.9992 5.98547 24.15 6.00032 24.287 6.05709C24.4241 6.11386 24.5412 6.20999 24.6236 6.33332C24.706 6.45666 24.75 6.60166 24.75 6.75H26.25C26.2481 6.2863 26.1029 5.83453 25.8344 5.45648C25.5659 5.07842 25.1872 4.79256 24.75 4.638V3.75H23.25V4.638C22.75 4.81412 22.3284 5.16151 22.06 5.61865C21.7916 6.07579 21.6936 6.61318 21.7835 7.13563C21.8733 7.65809 22.1451 8.13189 22.5508 8.47313C22.9565 8.81436 23.4699 9.001 24 9C24.1989 9 24.3897 9.07902 24.5303 9.21967C24.671 9.36032 24.75 9.55109 24.75 9.75C24.75 9.94891 24.671 10.1397 24.5303 10.2803C24.3897 10.421 24.1989 10.5 24 10.5Z" fill="#078CEB"/>
<path d="M9 25.5001V46.5001C9 46.699 9.07902 46.8898 9.21967 47.0305C9.36032 47.1711 9.55109 47.2501 9.75 47.2501H38.25C38.4489 47.2501 38.6397 47.1711 38.7803 47.0305C38.921 46.8898 39 46.699 39 46.5001V25.5001C39 25.3012 38.921 25.1105 38.7803 24.9698C38.6397 24.8291 38.4489 24.7501 38.25 24.7501H36.75V22.5001C36.75 22.3012 36.671 22.1105 36.5303 21.9698C36.3897 21.8291 36.1989 21.7501 36 21.7501H32.835L32.9775 21.1824C33.0052 21.0718 33.0073 20.9563 32.9837 20.8448C32.9601 20.7333 32.9114 20.6286 32.8413 20.5387C32.7711 20.4488 32.6814 20.3761 32.579 20.3261C32.4765 20.2761 32.364 20.2501 32.25 20.2501H26.25V18.7501H27C28.5908 18.7483 30.1158 18.1156 31.2407 16.9908C32.3655 15.866 32.9982 14.3409 33 12.7501C33 12.5512 32.921 12.3605 32.7803 12.2198C32.6397 12.0791 32.4489 12.0001 32.25 12.0001H30.4897C31.1501 10.8601 31.4986 9.56632 31.5 8.24887C31.5014 6.93143 31.1558 5.63685 30.4979 4.49543C29.84 3.35401 28.8931 2.40603 27.7524 1.74689C26.6116 1.08775 25.3174 0.740723 24 0.740723C22.6826 0.740723 21.3884 1.08775 20.2476 1.74689C19.1069 2.40603 18.16 3.35401 17.5021 4.49543C16.8442 5.63685 16.4986 6.93143 16.5 8.24887C16.5014 9.56632 16.8499 10.8601 17.5103 12.0001H15.75C15.5511 12.0001 15.3603 12.0791 15.2197 12.2198C15.079 12.3605 15 12.5512 15 12.7501C15.0018 14.3409 15.6345 15.866 16.7593 16.9908C17.8842 18.1156 19.4092 18.7483 21 18.7501H21.75V20.2501H15.75C15.636 20.2501 15.5235 20.2761 15.421 20.3261C15.3186 20.3761 15.2289 20.4488 15.1587 20.5387C15.0886 20.6286 15.0399 20.7333 15.0163 20.8448C14.9927 20.9563 14.9948 21.0718 15.0225 21.1824L15.165 21.7501H12.75C11.7558 21.7513 10.8027 22.1468 10.0997 22.8498C9.39666 23.5528 9.00119 24.5059 9 25.5001V25.5001ZM37.5 37.5001H34.5C34.1022 37.5001 33.7206 37.3421 33.4393 37.0608C33.158 36.7795 33 36.398 33 36.0001C33 35.6023 33.158 35.2208 33.4393 34.9395C33.7206 34.6582 34.1022 34.5001 34.5 34.5001H37.5V37.5001ZM37.5 33.0001H34.5C33.7044 33.0001 32.9413 33.3162 32.3787 33.8788C31.8161 34.4414 31.5 35.2045 31.5 36.0001C31.5 36.7958 31.8161 37.5588 32.3787 38.1214C32.9413 38.6841 33.7044 39.0001 34.5 39.0001H37.5V45.7501H10.5V26.2501H16.29L18.0225 33.1816C18.063 33.344 18.1566 33.4881 18.2884 33.5911C18.4202 33.6941 18.5827 33.7501 18.75 33.7501H29.25C29.4173 33.7501 29.5798 33.6941 29.7116 33.5911C29.8434 33.4881 29.937 33.344 29.9775 33.1816L31.71 26.2501H37.5V33.0001ZM35.25 23.2501V24.7501H32.085L32.46 23.2501H35.25ZM27 17.2501H24.8123C24.9909 16.2021 25.5343 15.2509 26.3463 14.5647C27.1584 13.8785 28.1868 13.5015 29.25 13.5001H31.4377C31.2591 14.5482 30.7157 15.4993 29.9037 16.1855C29.0916 16.8717 28.0632 17.2488 27 17.2501V17.2501ZM24 2.25013C25.1341 2.24896 26.2453 2.56964 27.2044 3.17492C28.1635 3.7802 28.9311 4.64523 29.4181 5.66947C29.9051 6.69372 30.0914 7.83513 29.9555 8.96107C29.8195 10.087 29.3668 11.1513 28.65 12.0301C27.6842 12.1289 26.7566 12.4602 25.9468 12.9958C25.137 13.5313 24.469 14.2551 24 15.1051C23.531 14.2551 22.863 13.5313 22.0532 12.9958C21.2434 12.4602 20.3158 12.1289 19.35 12.0301C18.6332 11.1513 18.1805 10.087 18.0445 8.96107C17.9086 7.83513 18.0949 6.69372 18.5819 5.66947C19.0689 4.64523 19.8365 3.7802 20.7956 3.17492C21.7547 2.56964 22.8659 2.24896 24 2.25013V2.25013ZM16.5623 13.5001H18.75C19.8132 13.5015 20.8416 13.8785 21.6537 14.5647C22.4657 15.2509 23.0091 16.2021 23.1877 17.2501H21C19.9368 17.2488 18.9084 16.8717 18.0963 16.1855C17.2843 15.4993 16.7409 14.5482 16.5623 13.5001V13.5001ZM23.25 18.7501H24.75V20.2501H23.25V18.7501ZM31.2893 21.7501L28.6643 32.2501H19.3358L16.7108 21.7501H31.2893ZM15.9142 24.7501H10.638C10.7926 24.3129 11.0784 23.9342 11.4565 23.6657C11.8345 23.3972 12.2863 23.2521 12.75 23.2501H15.54L15.9142 24.7501Z" fill="#078CEB"/>
</svg>
